<?xml version="1.0" encoding="UTF-8"?>
<svg id="Layer_1" xmlns="http://www.w3.org/2000/svg" version="1.1" viewBox="0 0 400 143">
  <!-- Generator: Adobe Illustrator 29.2.1, SVG Export Plug-In . SVG Version: 2.1.0 Build 116)  -->
  <defs>
    <style>
      .st0 {
        fill: #fff;
      }
    </style>
  </defs>
  <path class="st0" d="M380.5,78.4l16.9-10.4c2.5-1.6,3.3-4.9,1.8-7.4-1.6-2.5-4.9-3.3-7.4-1.8l-24.7,15.2v-30.1c0-3-2.4-5.4-5.4-5.4s-5.4,2.4-5.4,5.4v56.5c0,3,2.4,5.4,5.4,5.4s5.4-2.4,5.4-5.4v-13.8l4.1-2.5,19.3,20.5c1.1,1.1,2.5,1.7,3.9,1.7s2.7-.5,3.7-1.5c2.2-2.1,2.3-5.5.2-7.6l-17.8-18.9Z"/>
  <path class="st0" d="M348.3,83.2c0-12.8-10.7-23.2-23.9-23.2s-21.5,8.2-23.5,19h-9.8c-2-10.8-11.8-19-23.5-19s-23.9,10.4-23.9,23.2,10.7,23.2,23.9,23.2,21.5-8.2,23.5-19h9.8c2,10.8,11.8,19,23.5,19s23.9-10.4,23.9-23.2ZM266.3,87.3h16.3c-1.9,6.2-7.9,10.8-15.1,10.8s-15.7-6.7-15.7-14.9,7-14.9,15.7-14.9,13.2,4.6,15.1,10.8h-16.3c-2.3,0-4.1,1.8-4.1,4.1s1.8,4.1,4.1,4.1ZM309.3,87.3h15.3c2.3,0,4.1-1.8,4.1-4.1s-1.8-4.1-4.1-4.1h-15.3c1.9-6.2,7.9-10.8,15.1-10.8s15.7,6.7,15.7,14.9-7,14.9-15.7,14.9-13.2-4.6-15.1-10.8Z"/>
  <path class="st0" d="M235.6,60.2c-7-3.3-15.9-2.3-24,2.7,0,0,0,0-.1,0-.3-2.9-3-5.1-6.1-4.7-2.7.4-4.6,2.8-4.6,5.6v36.8c0,2.8,2.1,5.3,4.9,5.6,3.2.3,5.9-2.2,5.9-5.4v-22.3c0-.6.2-1.2.5-1.7.9-1.5,3.2-3.8,6.9-5.8,2.2-1.1,7.7-3.5,12.3-1.1,2.8,1.4,6.2.1,7.4-2.8,1.1-2.7-.4-5.8-3-7.1Z"/>
  <path class="st0" d="M185,66.9c2.2-2.9,3.5-6.5,3.5-10.5,0-9.5-8.2-17.5-17.8-17.5h-14.2c-3,0-5.4,2.4-5.4,5.4v56.5c0,3,2.4,5.4,5.4,5.4h17.6c10,0,20.8-8.3,20.8-20.7s-3.6-15.5-9.9-18.7ZM161.9,49.8h8.8c4,0,7,3.6,7,6.6,0,4.6-5,8-9.7,8.2h-6.1v-14.9ZM174.1,95.5h-12.2v-20h5.2c.4,0,.8,0,1.1,0h6.6c2.7,0,9.2,0,9.2,10.2s-6.6,9.9-10,9.9Z"/>
  <path class="st0" d="M335.2,135.4h-9.6v-12.8c0-1.1-.9-2.1-2.1-2.1s-2.1.9-2.1,2.1v14.9c0,1.1.9,2.1,2.1,2.1h11.6c1.1,0,2.1-.9,2.1-2.1s-.9-2.1-2.1-2.1Z"/>
  <path class="st0" d="M342.4,120.5c-1.1,0-2.1.9-2.1,2.1v15.1c0,1.1.9,2.1,2.1,2.1s2.1-.9,2.1-2.1v-15.1c0-1.1-.9-2.1-2.1-2.1Z"/>
  <path class="st0" d="M373.6,120.5c-1.1,0-2.1.9-2.1,2.1v15.1c0,1.1.9,2.1,2.1,2.1s2.1-.9,2.1-2.1v-15.1c0-1.1-.9-2.1-2.1-2.1Z"/>
  <path class="st0" d="M367.3,124.3c-.9-.7-2.2-.5-2.9.5l-6.4,8.9-6.4-8.9c-.7-.9-2-1.1-2.9-.5-.9.7-1.1,2-.5,2.9l8.1,11.2c.4.5,1,.9,1.7.9s1.3-.3,1.7-.9l8.1-11.2c.7-.9.5-2.2-.5-2.9Z"/>
  <path class="st0" d="M388.9,121.6c-5.4,0-9.7,4.4-9.7,9.7v6.4c0,1.1.9,2.1,2.1,2.1s2.1-.9,2.1-2.1v-6.4c0-3.1,2.5-5.6,5.6-5.6s5.6,2.5,5.6,5.6v6.4c0,1.1.9,2.1,2.1,2.1s2.1-.9,2.1-2.1v-6.4c0-5.4-4.4-9.7-9.7-9.7Z"/>
  <path class="st0" d="M342.4,113c-1.2,0-2.3,1-2.3,2.3s1,2.3,2.3,2.3,2.3-1,2.3-2.3-1-2.3-2.3-2.3Z"/>
  <path class="st0" d="M373.6,113c-1.2,0-2.3,1-2.3,2.3s1,2.3,2.3,2.3,2.3-1,2.3-2.3-1-2.3-2.3-2.3Z"/>
  <path class="st0" d="M104.7,17.1c-12.4-7.6-23.5-9.2-32.6-9.2s-17.8.2-20.2,10.7c-.1.6-1,.6-1.2,0-1.1-4.9-2.8-13.2-7.4-18-3.5-3.7-24,8.4-26.2,11.9-1.7,2.7.5,6.1-2.8,6.4C10.5,19.4,2,27.1,0,35.9c0,.3.2.7.5.5,2.6-1,11.1-3.9,25.1-3.9s16.4,1.1,17.3,3.3c1,2.4-.6,2.7-4,2-4.2-.8-6.9-.8-13.3-.8s-20.1,1.4-24.3,3.2c-4.2,1.8,9.7,8.3,15.9,9.7,6.2,1.4,16,1.5,20.6.6,4.6-.8,9.9-.6,12.1-.4,3.3.3,3.3,1.2,6.7,3.1,9.1,5.2,5,6.7,1.8,5.4-3.4-1.4-7.4-1.9-10.7-1.6s-2.7,2.4,0,2.4,8.8.6,12.2,4.9c2.5,3.2,5.9,9,8.3,16.4.2.5.8.3.8-.2l-.8-7.4c0-.5.6-.8.9-.4,1.9,2.3,2.8,4.6,3.4,5.2.9.9.1-3.9-1.2-6.3-1.3-2.3-2.2-3.4-3.5-5s-3.2-3.6-.8-5.3c2.3-1.6,5.9-6.2,5.9-10.6s-1.2-5.5-2.3-7c-1.6-2.2,1.8-5.5,4.2-2.6,2,2.5,2.9,6.2,2.9,9.7-.1,4.7-2.1,10-6.3,13.3-.3.2-.4.7,0,1,2.3,2.5,12.4,14.4,18.2,24.3,1.3,2.2,2.2,4.9-1.1,4.2-2.2-.5-7.3-4.8-11.1-5.2-3.9-.4.7,1.6,3.5,2.9,2.6,1.2,3.1,3.2-.9,2-2.8-.8-5.2-1.3-5.4-.5-.2.8,7.5,3.1,13.1,8.3,3.9,3.6,4.7,6.8,5.3,7,1.4.4.9-2.6-.4-5.4-.8-1.9-1.5-2.5,1.2-4.3s7.3-5.6,7.3-11.9-.6-3.5-1.5-6.5c-.4-1.4.4-2.9,1.8-3.1,3-.4,4.4,5.7,4.4,9.6,0,6.7-3.1,11.1-7.3,14.3,0,0,4.3,4.1,4.3,12.5s-5.9,23.7-28,23.7-20.9-12.9-20.9-17.6,4.5-15.6,14.7-15.1c11,.5,13.7,9.5,13.7,13.5s-2.5,10.1-8.6,10.1-8.6-3.8-8.6-6.6,1.9-4.1,3.5-4.1c2.6,0,3.2,3.5,5.3,3.5s2.7-4.3.4-6.6c-2.3-2.2-7.4-4.3-12-.6-4.1,3.3-3,10.8,1.9,15.2,6,5.5,23.8,5,23.8-11.8s-13-19-18.8-19.7c-8.4-1-22.3,3-22.6,20.7-.3,16.4,16.3,24.9,27.6,24.9,19.4,0,57.7-13.9,59.3-72.2.6-20.3-13.4-44.4-28.6-53.7ZM27.7,29.2c-3.5,0-7.8-3-8.2-7-.3-3.9,3.6-7,8.2-7s7.2,2.3,7.2,6.2-2.7,7.9-7.2,7.9Z"/>
  <path class="st0" d="M26.3,18.3c-1.2,0-2.2,1-2.2,2.2s1,2.2,2.2,2.2,2.2-1,2.2-2.2-1-2.2-2.2-2.2Z"/>
</svg>