<?xml version="1.0" encoding="UTF-8"?>
<svg id="Capa_1" xmlns="http://www.w3.org/2000/svg" version="1.1" xmlns:xlink="http://www.w3.org/1999/xlink" viewBox="0 0 800 800">
  <!-- Generator: Adobe Illustrator 29.2.1, SVG Export Plug-In . SVG Version: 2.1.0 Build 116)  -->
  <defs>
    <style>
      .st0 {
        fill: #fff;
      }
    </style>
  </defs>
  <path class="st0" d="M775.9,151.2l-587.3.3c-4.5-.8-16.6-76-22.4-87.6-4.3-8.7-11.9-12.3-21.1-13.2-39.5-3.6-85.1,2.5-125.3.6-27.7,5.7-25.7,45.3,1.9,49.6,15.2,2.3,100-3.4,103.7.3l127.1,511.7c6.3,8.6,12.1,12.5,23.1,13,132.4,5.7,271.2-9,403.9.7,31.8-2.3,36.8-43,4.8-50.1l-388.3-.2-3.3-3.6-16.4-71.6h428.5c16.4,0,21.8-29.2,25.2-41.1,25.9-91,42.7-185,69.1-275.9,3.6-16.5-5.3-32.7-23.3-32.7ZM201,201.6h98.3l13.7,98.3h-85.7l-26.3-98.3ZM262.7,450.7l-22.9-100.6h76.6l14.9,100.6h-68.6ZM445.5,450.7h-64l-11.4-100.6h75.4v100.6ZM447.8,299.9h-84.6l-13.7-98.3h96v94.8c0,.7,2.9,1.8,2.3,3.4ZM562.1,450.7h-66.3v-97.1l3.4-3.4h74.3l-11.4,100.6ZM580.3,299.9h-84.6v-98.3h98.3l-13.7,98.3ZM680.9,450.7h-68.6l14.9-100.6h76.6l-22.9,100.6ZM716.3,299.9h-85.7l13.7-98.3h98.3l-26.3,98.3Z"/>
  <path class="st0" d="M621,650c-67.5,6.7-57.3,109.4,12.9,99.9,60-8.2,50.5-106.1-12.9-99.9Z"/>
  <path class="st0" d="M314.8,650c-67.1,6.6-57.6,109.5,12.9,99.9,60.3-8.2,50-106.1-12.9-99.9Z"/>
</svg>