<?xml version="1.0" encoding="UTF-8"?>
<svg id="Layer_1" xmlns="http://www.w3.org/2000/svg" version="1.1" viewBox="0 0 300 300">
  <!-- Generator: Adobe Illustrator 29.2.1, SVG Export Plug-In . SVG Version: 2.1.0 Build 116)  -->
  <defs>
    <style>
      .st0 {
        fill: #2eaea5;
      }
    </style>
  </defs>
  <path class="st0" d="M260.31,183.66c-12.03,7.8-23.42,17.05-35.51,24.82-4.41-8.61-11.82-14.65-21.75-15.38-16.94-1.25-35.39.98-52.48,0-32.69-24.97-78.96-31.73-111.07-1.94-10.67,1.02-23.18-1.12-33.62.12-2.92.35-4.34,1.91-5.48,4.46v74.6c1.14,2.55,2.56,4.11,5.48,4.46,12.39,1.47,27.42-1,40.09.03l122.39,23.26h6.75l5.35-1.59c28.16-17.6,55.36-37.01,82.5-56.21,8.37-5.92,17.4-11.82,25.49-18,26.44-20.19,1.3-57.71-28.13-38.63h-.01ZM281.7,213.29c-20.88,16.12-44.88,31.77-66.73,46.86-11.18,7.72-24.53,18.19-36.14,24.59-4.42,2.44-6.39,2.32-11.29,1.6-40.17-5.92-80.49-17.13-120.82-22.77l-35.07.02v-61.11h31.68c1.82-.33,6.1-4.95,7.88-6.36,30.43-24.05,67.7-12.89,96.05,8.15l55.04.07c13.26.57,18.85,20.62,3.75,23.27h-71.6c-5.57,1.4-6.49,8.42-1.17,10.87l73.51.37c10.35-.78,17.03-8.23,19.69-17.8l42.15-29.46c14.48-8.39,28.2,9.99,13.06,21.68v.02Z"/>
  <path class="st0" d="M146.12,178.8c2.78,1.83,7.87,5.37,10.73,6.54,1.29.53,2-.19,3.14-.78,46.54-23.93,74.89-75.64,76.25-127.33v-16.33c-26.45,1.56-53.62-8.86-71.06-28.86-2.79-3.19-4.84-7.04-7.67-10.13-16.01,26.56-47.68,40.87-78.36,38.99-.75,33,5.61,66.41,23.47,94.44,11.08,17.4,26.32,32.14,43.53,43.45h-.03ZM148.87,29.1c3.19-2.69,5.98-5.93,9.17-8.44,16.96,18.85,41.55,30.07,66.93,31.5-.41,20.35-4.2,40.8-12.3,59.48-11.12,25.64-30.95,47.28-55.18,61.03-20.33-12.43-38.08-29.5-49.55-50.54-11.7-21.45-16.72-45.64-17.55-69.98,21.43-1.16,42.14-9.27,58.49-23.05h0Z"/>
  <polygon class="st0" points="204.74 68.08 196.29 60.78 150.17 118.13 127.68 95.27 119.63 103.33 150.92 135 204.74 68.08"/>
</svg>