<?xml version="1.0" encoding="UTF-8"?>
<svg id="Layer_1" xmlns="http://www.w3.org/2000/svg" version="1.1" viewBox="0 0 300 300">
  <!-- Generator: Adobe Illustrator 29.2.1, SVG Export Plug-In . SVG Version: 2.1.0 Build 116)  -->
  <defs>
    <style>
      .st0 {
        fill: #2eaea5;
      }
    </style>
  </defs>
  <path class="st0" d="M297.93,40.89c-5.35-18.63-20.13-33.51-38.8-38.8L248.63.03H51.43C25.85,1.96,3.71,23.28.49,48.63-.49,114.91.34,181.32.07,247.65c1.96,27.74,24.6,50.31,52.3,52.3l194.59.02c27.89-1.52,50.31-23.8,53.03-51.38V51.39l-2.06-10.5ZM245.46,281.22H54.98c-19.8-1.15-34.86-16.04-36.18-35.8l.02-191.21c1.34-18.85,15.86-33.83,34.79-35.32l191.85-.13c19.53,1.21,34.56,16.3,35.8,35.8v190.48c-1.15,19.82-16.03,34.83-35.8,36.18h0Z"/>
  <path class="st0" d="M143.21,37.63C60.34,42.18,10.73,134.21,52.63,206.34c40.83,70.28,140.55,75.63,188.43,9.75,56-77.04-3.32-183.66-97.86-178.46h.01ZM227.57,202.59c-38.18,56.32-122.23,54.18-157.54-3.9-36.95-60.76,4.68-138.35,75.06-142.32,76.78-4.34,125.84,82.27,82.49,146.22h-.01Z"/>
  <path class="st0" d="M122.87,168.75c4.25-.38,7.77-3.92,8.42-8.07v-58.5c-.23-3.86-3.91-7.87-7.72-8.39-9.54-1.3-21.91.83-31.74.06-3.83,1.01-6.76,4.02-7.4,7.97v58.5c.36,4.17,3.72,7.53,7.72,8.39,9.9-.61,20.97.92,30.72.05h0ZM112.54,149.99h-9.37v-37.49h9.37v37.49Z"/>
  <path class="st0" d="M207.92,93.79c-9.54-1.3-21.91.83-31.74.06-3.83,1.01-6.76,4.02-7.4,7.97v58.5c.36,4.17,3.72,7.53,7.72,8.39,9.9-.61,20.97.92,30.72.05,4.25-.38,7.77-3.92,8.42-8.07v-58.5c-.23-3.86-3.91-7.87-7.72-8.39h0ZM196.89,149.99h-9.37v-37.49h9.37v37.49Z"/>
  <path class="st0" d="M143.96,178.22c-18.75,1.32-30.18,9.85-31.41,29.32-.47,7.49-.86,15.99,8.42,17.44h58.14c9.27-1.45,8.89-9.95,8.42-17.44-1.62-25.53-21.18-30.89-43.56-29.32h0ZM131.66,206.23c.25-3.46,1.44-6.4,4.78-7.77,5.44-2.24,22.08-2.25,27.46.09,3.11,1.35,4.28,4.45,4.5,7.69h-36.74,0Z"/>
</svg>