<?xml version="1.0" encoding="UTF-8"?>
<svg id="Layer_1" xmlns="http://www.w3.org/2000/svg" version="1.1" viewBox="0 0 300 300">
  <!-- Generator: Adobe Illustrator 29.2.1, SVG Export Plug-In . SVG Version: 2.1.0 Build 116)  -->
  <defs>
    <style>
      .st0 {
        fill: #2eaea5;
      }
    </style>
  </defs>
  <path class="st0" d="M292,264.83c-1.65-4.34-4.77-7.2-8.05-10.32-22.01-20.92-45.82-40.21-68.24-60.72-.92-.85-6.19-5.54-6.33-6.08-.08-.32-.06-.58.14-.85,19.5-25.44,26.66-58.91,20.25-90.37C218.87,42.92,169.94,4.46,115.16,6.63,61.99,8.74,16.85,47.95,8.12,100.54c-12.32,74.24,49.45,139.11,124.13,130.87,19.71-2.17,38.9-9.95,54.61-21.89.26-.2.53-.23.85-.14.54.14,5.23,5.4,6.08,6.33,20.52,22.44,40.13,46.75,61.1,68.62,3.13,3.27,5.82,6.18,10.21,7.78,17.05,6.23,33.36-10.29,26.9-27.28ZM43.48,168.07C6.85,111.28,44.87,34.02,112.16,29.5c72.06-4.84,121.39,70.97,85.62,134.36-33.22,58.87-117.73,60.94-154.31,4.22Z"/>
  <path class="st0" d="M153.74,45.81c-8.82-5.75-28.57-8.3-38.95-7.69-5.45.32-19.55,2.4-23.89,5.35-3.49,2.37-4.12,7.09-1.31,10.26,3.83,4.34,9.42.89,14.03-.17,13.88-3.18,26.2-2.02,39.56,2.43,1.59.53,3.57,1.78,5.03,2.09,8.36,1.77,12.26-7.89,5.53-12.28Z"/>
  <path class="st0" d="M179.36,64.43c-2.21-2.34-4.38-4.89-7.96-4.6-3.24.26-6.32,3.59-6.32,6.86,0,3.54,5.29,8.03,7.51,10.89,2,2.57,5.63,9.23,7.7,10.67,4.66,3.25,11.01-.61,10.7-6.18-.19-3.53-8.9-14.76-11.63-17.64Z"/>
</svg>